<mxfile host="app.diagrams.net" agent="Mozilla/5.0 (Windows NT 10.0; Win64; x64) AppleWebKit/537.36 (KHTML, like Gecko) Chrome/137.0.0.0 Safari/537.36" version="27.1.6">
  <diagram name="第 1 页" id="aRUqsuHfNblGnQWbQcqw">
    <mxGraphModel dx="1042" dy="562" grid="1" gridSize="10" guides="1" tooltips="1" connect="1" arrows="1" fold="1" page="1" pageScale="1" pageWidth="827" pageHeight="1169" math="0" shadow="0">
      <root>
        <mxCell id="0" />
        <mxCell id="1" parent="0" />
        <mxCell id="bg5OuG16e2F0WkgX2O0--1" value="" style="rounded=1;whiteSpace=wrap;html=1;fillColor=#FFCC99;strokeColor=none;fillStyle=solid;gradientColor=#FFD9B5;gradientDirection=radial;" parent="1" vertex="1">
          <mxGeometry x="199" y="50" width="641" height="660" as="geometry" />
        </mxCell>
        <mxCell id="bg5OuG16e2F0WkgX2O0--2" value="" style="rounded=1;whiteSpace=wrap;html=1;fillColor=#FFE6CC;strokeColor=#D6B656;" parent="1" vertex="1">
          <mxGeometry x="249" y="120" width="551" height="150" as="geometry" />
        </mxCell>
        <mxCell id="bg5OuG16e2F0WkgX2O0--5" value="&lt;font style=&quot;font-size: 20px;&quot;&gt;针对二进制程序的软件图谱构建系统&lt;/font&gt;" style="text;html=1;align=center;verticalAlign=middle;whiteSpace=wrap;rounded=0;" parent="1" vertex="1">
          <mxGeometry x="309" y="70" width="210" height="30" as="geometry" />
        </mxCell>
        <mxCell id="bg5OuG16e2F0WkgX2O0--6" value="" style="shape=flexArrow;endArrow=classic;html=1;rounded=0;exitX=0.5;exitY=1;exitDx=0;exitDy=0;entryX=0.5;entryY=0;entryDx=0;entryDy=0;" parent="1" source="bg5OuG16e2F0WkgX2O0--2" target="bS8UuNIAxfMRzgriKABz-2" edge="1">
          <mxGeometry width="50" height="50" relative="1" as="geometry">
            <mxPoint x="390" y="290" as="sourcePoint" />
            <mxPoint x="523.4200000000001" y="300" as="targetPoint" />
          </mxGeometry>
        </mxCell>
        <mxCell id="bg5OuG16e2F0WkgX2O0--8" value="" style="shape=flexArrow;endArrow=classic;html=1;rounded=0;exitX=0.5;exitY=1;exitDx=0;exitDy=0;entryX=0.5;entryY=0;entryDx=0;entryDy=0;" parent="1" source="bS8UuNIAxfMRzgriKABz-2" target="bS8UuNIAxfMRzgriKABz-3" edge="1">
          <mxGeometry width="50" height="50" relative="1" as="geometry">
            <mxPoint x="520" y="490" as="sourcePoint" />
            <mxPoint x="521.5652173913043" y="530" as="targetPoint" />
          </mxGeometry>
        </mxCell>
        <mxCell id="bS8UuNIAxfMRzgriKABz-1" value="&lt;font style=&quot;font-size: 18px;&quot;&gt;多粒度图结构设计&lt;/font&gt;" style="rounded=1;whiteSpace=wrap;html=1;fillColor=#ffe6cc;strokeColor=#d79b00;" vertex="1" parent="1">
          <mxGeometry x="270" y="200" width="120" height="60" as="geometry" />
        </mxCell>
        <mxCell id="bS8UuNIAxfMRzgriKABz-2" value="" style="rounded=1;whiteSpace=wrap;html=1;fillColor=#FFE6CC;strokeColor=#D6B656;" vertex="1" parent="1">
          <mxGeometry x="249" y="320" width="551" height="150" as="geometry" />
        </mxCell>
        <mxCell id="bS8UuNIAxfMRzgriKABz-3" value="" style="rounded=1;whiteSpace=wrap;html=1;fillColor=#FFE6CC;strokeColor=#D6B656;" vertex="1" parent="1">
          <mxGeometry x="249" y="530" width="551" height="150" as="geometry" />
        </mxCell>
        <mxCell id="bS8UuNIAxfMRzgriKABz-5" value="&lt;font style=&quot;font-size: 18px;&quot;&gt;图融合设计&lt;/font&gt;" style="rounded=1;whiteSpace=wrap;html=1;fillColor=#ffe6cc;strokeColor=#d79b00;" vertex="1" parent="1">
          <mxGeometry x="459.5" y="200" width="120" height="60" as="geometry" />
        </mxCell>
        <mxCell id="bS8UuNIAxfMRzgriKABz-6" value="&lt;font style=&quot;font-size: 18px;&quot;&gt;可扩展性设计&lt;/font&gt;" style="rounded=1;whiteSpace=wrap;html=1;fillColor=#ffe6cc;strokeColor=#d79b00;" vertex="1" parent="1">
          <mxGeometry x="660" y="200" width="120" height="60" as="geometry" />
        </mxCell>
        <mxCell id="bS8UuNIAxfMRzgriKABz-7" value="&lt;font style=&quot;font-size: 21px;&quot;&gt;软件图谱的设计&lt;/font&gt;" style="text;html=1;align=center;verticalAlign=middle;whiteSpace=wrap;rounded=0;" vertex="1" parent="1">
          <mxGeometry x="439.5" y="140" width="160" height="20" as="geometry" />
        </mxCell>
        <mxCell id="bS8UuNIAxfMRzgriKABz-8" value="&lt;font style=&quot;font-size: 21px;&quot;&gt;软件图谱的构建&lt;/font&gt;" style="text;html=1;align=center;verticalAlign=middle;whiteSpace=wrap;rounded=0;" vertex="1" parent="1">
          <mxGeometry x="444.5" y="340" width="160" height="20" as="geometry" />
        </mxCell>
        <mxCell id="bS8UuNIAxfMRzgriKABz-9" value="&lt;span style=&quot;font-size: 18px;&quot;&gt;反编译与语义恢复&lt;/span&gt;" style="rounded=1;whiteSpace=wrap;html=1;fillColor=#ffe6cc;strokeColor=#d79b00;" vertex="1" parent="1">
          <mxGeometry x="270" y="400" width="120" height="60" as="geometry" />
        </mxCell>
        <mxCell id="bS8UuNIAxfMRzgriKABz-11" value="&lt;font style=&quot;font-size: 18px;&quot;&gt;图谱子图构建&lt;/font&gt;" style="rounded=1;whiteSpace=wrap;html=1;fillColor=#ffe6cc;strokeColor=#d79b00;" vertex="1" parent="1">
          <mxGeometry x="459.5" y="400" width="120" height="60" as="geometry" />
        </mxCell>
        <mxCell id="bS8UuNIAxfMRzgriKABz-12" value="&lt;font style=&quot;font-size: 18px;&quot;&gt;图谱子图融合&lt;/font&gt;" style="rounded=1;whiteSpace=wrap;html=1;fillColor=#ffe6cc;strokeColor=#d79b00;" vertex="1" parent="1">
          <mxGeometry x="660" y="400" width="120" height="60" as="geometry" />
        </mxCell>
        <mxCell id="bS8UuNIAxfMRzgriKABz-13" value="&lt;font style=&quot;font-size: 21px;&quot;&gt;软件图谱的应用&lt;/font&gt;" style="text;html=1;align=center;verticalAlign=middle;whiteSpace=wrap;rounded=0;" vertex="1" parent="1">
          <mxGeometry x="444.5" y="550" width="160" height="20" as="geometry" />
        </mxCell>
        <mxCell id="bS8UuNIAxfMRzgriKABz-14" value="&lt;font style=&quot;font-size: 18px;&quot;&gt;漏洞行为建模&lt;/font&gt;" style="rounded=1;whiteSpace=wrap;html=1;fillColor=#ffe6cc;strokeColor=#d79b00;" vertex="1" parent="1">
          <mxGeometry x="270" y="610" width="120" height="60" as="geometry" />
        </mxCell>
        <mxCell id="bS8UuNIAxfMRzgriKABz-15" value="&lt;font style=&quot;font-size: 18px;&quot;&gt;图查询语句设计与生成&lt;/font&gt;" style="rounded=1;whiteSpace=wrap;html=1;fillColor=#ffe6cc;strokeColor=#d79b00;" vertex="1" parent="1">
          <mxGeometry x="464.5" y="610" width="120" height="60" as="geometry" />
        </mxCell>
        <mxCell id="bS8UuNIAxfMRzgriKABz-16" value="&lt;font style=&quot;font-size: 18px;&quot;&gt;漏洞验证与挖掘&lt;/font&gt;" style="rounded=1;whiteSpace=wrap;html=1;fillColor=#ffe6cc;strokeColor=#d79b00;" vertex="1" parent="1">
          <mxGeometry x="660" y="610" width="120" height="60" as="geometry" />
        </mxCell>
      </root>
    </mxGraphModel>
  </diagram>
</mxfile>
